<svg width="16" height="16" viewBox="0 0 16 16" fill="none" xmlns="http://www.w3.org/2000/svg">
<path d="M6.9318 0.5C6.8379 0.5 6.75902 0.569621 6.7422 0.662C6.51669 1.9004 5.63919 2.95845 4.36781 3.51211C4.26334 3.5576 4.21718 3.68281 4.27227 3.78256L5.11911 5.31591C5.1657 5.40028 5.26891 5.43579 5.3565 5.39556C7.32534 4.49134 8.65748 2.73976 8.90398 0.702996C8.91717 0.593991 8.83059 0.5 8.72079 0.5L6.9318 0.5Z" fill="#FF699B"/>
<path d="M0.909398 5.16538C0.86185 5.2471 0.882999 5.35107 0.955459 5.41181C1.92442 6.22407 2.4113 7.5068 2.2604 8.87066C2.24792 8.98348 2.33272 9.08569 2.4462 9.08832L4.21102 9.12923C4.30793 9.13148 4.39088 9.05939 4.39948 8.96284C4.59056 6.81972 3.72666 4.80369 2.06763 3.57503C1.97992 3.51008 1.85619 3.538 1.80131 3.63233L0.909398 5.16538Z" fill="#8175FF"/>
<path d="M1.97935 12.668C2.02631 12.7487 2.12539 12.782 2.2134 12.7508C3.40998 12.326 4.77927 12.549 5.89797 13.3614C5.98911 13.4276 6.11872 13.4053 6.17774 13.3094L7.09651 11.8162C7.1477 11.733 7.12651 11.6241 7.0463 11.5684C5.26968 10.334 3.07565 10.0672 1.17198 10.8743C1.07046 10.9173 1.03218 11.04 1.08763 11.1353L1.97935 12.668Z" fill="#5C85FF"/>
<path d="M9.07118 15.5002C9.16508 15.5002 9.24397 15.4306 9.26079 15.3382C9.4863 14.0998 10.3638 13.0418 11.6352 12.4881C11.7396 12.4426 11.7858 12.3174 11.7307 12.2176L10.8839 10.6843C10.8373 10.5999 10.7341 10.5644 10.6465 10.6046C8.67764 11.5089 7.34551 13.2604 7.099 15.2972C7.08581 15.4062 7.17239 15.5002 7.28219 15.5002H9.07118Z" fill="#54B8FF"/>
<path d="M15.0905 10.835C15.138 10.7533 15.1169 10.6493 15.0444 10.5886C14.0754 9.77632 13.5886 8.49358 13.7395 7.12973C13.7519 7.0169 13.6671 6.91469 13.5537 6.91206L11.7888 6.87115C11.6919 6.86891 11.609 6.941 11.6004 7.03754C11.4093 9.18067 12.2732 11.1967 13.9322 12.4253C14.0199 12.4903 14.1437 12.4624 14.1985 12.3681L15.0905 10.835Z" fill="#F5A61E"/>
<path d="M14.0203 3.33267C13.9733 3.25195 13.8742 3.21862 13.7862 3.24986C12.5896 3.67461 11.2203 3.45159 10.1016 2.63926C10.0105 2.57308 9.8809 2.59534 9.82188 2.69126L8.9031 4.18449C8.85192 4.26767 8.87311 4.37653 8.95332 4.43226C10.7299 5.66666 12.924 5.9334 14.8276 5.12633C14.9292 5.08329 14.9674 4.96069 14.912 4.86538L14.0203 3.33267Z" fill="#FF876E"/>
</svg>
